<?xml version="1.0" encoding="utf-8"?>
<!--Designed by Vexels.com - 2018 All Rights Reserved - https://vexels.com/terms-and-conditions/-->
<svg version="1.1" id="Layer_1" xmlns="http://www.w3.org/2000/svg" xmlns:xlink="http://www.w3.org/1999/xlink" x="0px" y="0px"
	 viewBox="0 0 1200 1200" enable-background="new 0 0 1200 1200" xml:space="preserve">
<path fill="#231F20" d="M1144.53,382.285L988.768,170.183l-5.145-7.006H216.377l-5.145,7.006L55.47,382.285L50,389.734l5.781,6.802
	l536.121,630.76l1.827,2.149l6.271,7.378l6.271-7.378l1.827-2.149l536.121-630.76l5.781-6.802L1144.53,382.285z M966.403,177.428
	l-90.049,129.864l-49.364,71.189L617.703,177.428H966.403z M810.38,382.285H389.62L600,180.183L810.38,382.285z M582.297,177.428
	L373.01,378.481l-49.364-71.189l-90.049-129.864H582.297z M219.818,182.567l88.672,127.875l49.817,71.843H73.149L219.818,182.567z
	 M74.486,396.536h292.417l100.692,280.958l112.5,313.907L74.486,396.536z M603.782,994.148L600,1004.701l-3.782-10.552
	L382.04,396.536h435.92L603.782,994.148z M619.906,991.401l112.5-313.907l100.692-280.958h292.417L619.906,991.401z
	 M841.694,382.285l49.817-71.843l88.672-127.875l146.668,199.717H841.694z"/>
</svg>
